<svg xmlns="http://www.w3.org/2000/svg" width="256" height="256" viewBox="0 0 256 256" fill="none">
	<defs>
		<linearGradient id="afrohr-bg" x1="36" y1="28" x2="220" y2="228" gradientUnits="userSpaceOnUse">
			<stop stop-color="#111827"/>
			<stop offset="1" stop-color="#020617"/>
		</linearGradient>
		<linearGradient id="afrohr-accent" x1="54" y1="54" x2="202" y2="202" gradientUnits="userSpaceOnUse">
			<stop stop-color="#FBBF24"/>
			<stop offset="0.5" stop-color="#F97316"/>
			<stop offset="1" stop-color="#EC4899"/>
		</linearGradient>
		<filter id="afrohr-shadow" x="0" y="0" width="256" height="256" filterUnits="userSpaceOnUse" color-interpolation-filters="sRGB">
			<feFlood flood-opacity="0" result="BackgroundImageFix"/>
			<feColorMatrix in="SourceAlpha" type="matrix" values="0 0 0 0 0 0 0 0 0 0 0 0 0 0 0 0 0 0 127 0" result="hardAlpha"/>
			<feOffset dy="12"/>
			<feGaussianBlur stdDeviation="14"/>
			<feComposite in2="hardAlpha" operator="out"/>
			<feColorMatrix type="matrix" values="0 0 0 0 0.0627451 0 0 0 0 0.0941176 0 0 0 0 0.156863 0 0 0 0.35 0"/>
			<feBlend mode="normal" in2="BackgroundImageFix" result="effect1_dropShadow_1_1"/>
			<feBlend mode="normal" in="SourceGraphic" in2="effect1_dropShadow_1_1" result="shape"/>
		</filter>
	</defs>
	<g filter="url(#afrohr-shadow)">
		<rect x="28" y="20" width="200" height="200" rx="52" fill="url(#afrohr-bg)"/>
		<rect x="40" y="32" width="176" height="176" rx="40" stroke="url(#afrohr-accent)" stroke-opacity="0.4" stroke-width="4"/>
	</g>
	<path d="M93 164L123.5 88H139L169 164H151.5L145.5 147H116L110 164H93ZM121.5 133.5H140L130.75 107.5L121.5 133.5Z" fill="white"/>
	<path d="M171 88H188V117H213V88H230V164H213V132H188V164H171V88Z" fill="url(#afrohr-accent)"/>
	<circle cx="76" cy="72" r="14" fill="url(#afrohr-accent)" fill-opacity="0.95"/>
</svg>
